<svg width="28" height="28" viewBox="0 0 28 28" fill="none" xmlns="http://www.w3.org/2000/svg">
<g clip-path="url(#clip0_1107_789)">
<path d="M0 0H28V28H0V0Z" fill="#11B064"/>
<path d="M14.0016 6.5L16.2016 11.1L21.4016 11.8L17.6016 15.3L18.6016 20.4L14.0016 17.9L9.40156 20.4L10.4016 15.3L6.60156 11.8L11.8016 11.1L14.0016 6.5Z" fill="white"/>
<path d="M-4 -4H33V33H-4V-4Z" fill="#429CE5"/>
<path d="M14 7.25C10.685 7.25 8 8.5925 8 10.25C8 11.9075 10.685 13.25 14 13.25C17.315 13.25 20 11.9075 20 10.25C20 8.5925 17.315 7.25 14 7.25ZM8 11.75V14C8 15.6575 10.685 17 14 17C17.315 17 20 15.6575 20 14V11.75C20 13.4075 17.315 14.75 14 14.75C10.685 14.75 8 13.4075 8 11.75ZM8 15.5V17.75C8 19.4075 10.685 20.75 14 20.75C17.315 20.75 20 19.4075 20 17.75V15.5C20 17.1575 17.315 18.5 14 18.5C10.685 18.5 8 17.1575 8 15.5Z" fill="white"/>
</g>
<defs>
<clipPath id="clip0_1107_789">
<rect width="28" height="28" fill="white"/>
</clipPath>
</defs>
</svg>
